# Blender v2.93.5 OBJ File: ''
# www.blender.org
mtllib wallunit.mtl
o Cube
v 1.000000 2.000000 -2.000000
v 1.257513 -0.025751 -2.515026
v 1.000000 2.000000 2.000000
v 1.257513 -0.025751 2.515026
v -1.000000 2.000000 -2.000000
v -1.257513 -0.025751 -2.515026
v -1.000000 2.000000 2.000000
v -1.257513 -0.025751 2.515026
v 0.730460 2.434947 1.460920
v -0.730460 2.434947 1.460920
v 0.730460 2.434947 -1.460920
v -0.730460 2.434947 -1.460920
v 0.730460 2.145621 1.460920
v -0.730460 2.145621 1.460920
v 0.730460 2.145621 -1.460920
v -0.730460 2.145621 -1.460920
v 1.257513 0.225751 -2.515026
v -1.257513 0.225751 2.515026
v 1.257513 0.225751 2.515026
v -1.257513 0.225751 -2.515026
vt 0.625000 0.250000
vt 0.625000 0.000000
vt 0.625000 0.000000
vt 0.625000 0.250000
vt 0.400000 0.750000
vt 0.625000 0.750000
vt 0.625000 1.000000
vt 0.400000 1.000000
vt 0.400000 0.000000
vt 0.400000 0.250000
vt 0.125000 0.500000
vt 0.375000 0.500000
vt 0.375000 0.750000
vt 0.125000 0.750000
vt 0.400000 0.500000
vt 0.625000 0.500000
vt 0.625000 0.500000
vt 0.625000 0.250000
vt 0.625000 0.500000
vt 0.625000 0.750000
vt 0.625000 1.000000
vt 0.875000 0.500000
vt 0.875000 0.750000
vt 0.625000 0.750000
vt 0.625000 0.000000
vt 0.625000 1.000000
vt 0.375000 0.250000
vt 0.375000 0.000000
vt 0.375000 1.000000
vn -0.8500 0.5268 0.0000
vn 0.0000 0.2788 0.9604
vn -0.9896 0.1436 0.0000
vn 0.0000 -1.0000 0.0000
vn 0.9896 0.1436 0.0000
vn 0.0000 0.2788 -0.9604
vn 0.0000 0.0000 1.0000
vn 0.8500 0.5268 0.0000
vn 0.0000 0.7783 -0.6279
vn 0.0000 0.7783 0.6279
vn 0.0000 1.0000 0.0000
vn -1.0000 0.0000 0.0000
vn 1.0000 0.0000 0.0000
vn 0.0000 0.0000 -1.0000
usemtl Material
s off
f 5/1/1 7/2/1 10/3/1 12/4/1
f 19/5/2 3/6/2 7/7/2 18/8/2
f 18/9/3 7/2/3 5/1/3 20/10/3
f 6/11/4 2/12/4 4/13/4 8/14/4
f 17/15/5 1/16/5 3/6/5 19/5/5
f 20/10/6 5/1/6 1/16/6 17/15/6
f 11/17/7 12/4/7 16/18/7 15/19/7
f 3/6/8 1/16/8 11/17/8 9/20/8
f 1/16/9 5/1/9 12/4/9 11/17/9
f 7/7/10 3/6/10 9/20/10 10/21/10
f 15/19/11 16/22/11 14/23/11 13/24/11
f 9/20/12 11/17/12 15/19/12 13/24/12
f 12/4/13 10/3/13 14/25/13 16/18/13
f 10/21/14 9/20/14 13/24/14 14/26/14
f 6/27/14 20/10/14 17/15/14 2/12/14
f 2/12/13 17/15/13 19/5/13 4/13/13
f 8/28/12 18/9/12 20/10/12 6/27/12
f 4/13/7 19/5/7 18/8/7 8/29/7
